<svg height="352" viewBox="0 0 443 352" width="443" xmlns="http://www.w3.org/2000/svg" xmlns:xlink="http://www.w3.org/1999/xlink"><linearGradient id="a"><stop offset="0" stop-color="#a592de"/><stop offset="1" stop-color="#c5b9ea" stop-opacity=".6"/></linearGradient><linearGradient id="b" x1="0%" xlink:href="#a" y1="50%" y2="50%"/><linearGradient id="c" x1="-.243%" x2="31.485%" y1="-47.458%" y2="-111.372%"><stop offset="0" stop-color="#6747c7"/><stop offset="1" stop-color="#a491de" stop-opacity=".6"/></linearGradient><linearGradient id="d" x1="46.658%" x2="51.012%" xlink:href="#a" y1="62.67%" y2="31.836%"/><g fill="none" fill-rule="evenodd"><path d="m260.964 214.153s29.627-15.993-5.637-8.45c-6.576 1.41-10.334 7.455-10.334 8.45" stroke="#ccc" stroke-width="2.25"/><path d="m204.357 40.304c-31.637 3.561-88.83-43.603-126.843-8.917-38.014 34.687-51.678 130.447-45.567 164.698 4.318 24.221 80.218 185.146 270.122 114.022 112.751-42.231 124.022-167.984 98.654-183.468-27.364-16.7-41.952-122.74-99.122-126.22-38.523-2.346-63.89 36.131-97.244 39.885z" fill="#ecf2fc" fill-rule="nonzero" opacity=".46"/><path d="m237.674 314.954c0 2.422-1.253 4.38-2.798 4.38-1.546 0-2.803-1.958-2.803-4.38 0-2.421 1.252-4.375 2.803-4.375 1.55 0 2.798 1.958 2.798 4.375" fill="#423284" fill-rule="nonzero"/><path d="m238.648 314.954c0-2.417-1.253-4.375-2.799-4.375l-1.298.027v.45c-.901.73-1.514 2.197-1.514 3.885 0 1.8.698 3.358 1.699 4.051v.351h.901c.07.005.139.005.208 0 .099.007.198.007.297 0 1.406-.234 2.497-2.093 2.497-4.353" fill="#423284" fill-rule="nonzero" opacity=".55"/><ellipse cx="225.02" cy="323.953" fill="#423284" fill-rule="nonzero" rx="3.75" ry="5.865"/><path d="m230.076 323.948c0-3.236-1.68-5.852-3.754-5.852l-1.74.04v.622c-1.203.977-2.027 2.94-2.027 5.204 0 2.421.937 4.5 2.253 5.401v.45h1.465c.135.001.271-.01.405-.031 1.933-.324 3.398-2.81 3.398-5.834z" fill="#423284" fill-rule="nonzero" opacity=".55"/><path d="m36.175 350.933 32.411-3.286v-42.699l-32.411 1.877z" fill="#423284" fill-rule="nonzero"/><path d="m9.865 304.948 26.31 1.877v44.108l-26.31-4.695z" fill="#8166d1" fill-rule="nonzero"/><path d="m9.865 304.948 26.31 1.877 32.411-1.877-23.488-1.877z" fill="url(#b)" fill-rule="nonzero" opacity=".51"/><path d="m26.31 309.17 32.411-3.286v-42.699l-32.411 1.877z" fill="#8166d1" fill-rule="nonzero"/><path d="m0 263.185 26.31 1.877v44.108l-26.31-4.69z" fill="#8d7add" fill-rule="nonzero"/><path d="m0 263.185 26.31 1.877 32.411-1.877-23.488-1.877z" fill="url(#b)" fill-rule="nonzero" opacity=".51"/><path d="m161.607 310.264c0-2.417-1.257-4.38-2.803-4.38l-1.298.032v.45c-.901.73-1.514 2.192-1.514 3.885 0 1.8.703 3.353 1.699 4.024v.355h.901c.07.005.138.005.208 0 .1 0 .202-.009.301-.027 1.411-.225 2.506-2.08 2.506-4.339z" fill="#423284" fill-rule="nonzero" opacity=".55"/><path d="m197.84 267.227c-.784 11.038 47.96 31.554 12.862 39.832" stroke="#ccc" stroke-width="2.25"/><g fill-rule="nonzero"><path d="m268.103 51.008-35.828-5.072v20.287l35.972 2.678" fill="#423284"/><path d="m268.143 68.834-33.38-2.467 32.93 3.367" fill="#2e2422"/><path d="m263.078 212.51-103.823 10.32-2.817 40.354 93.954 5.163z" fill="#423284" opacity=".68"/><path d="m149.94 216.39s1.329 6.576.234 8.062c-1.095 1.485-6.31.869-7.833 1.72-1.523.85-5.218 2.727-9.603 2.25s-3.515-2.278-3.515-2.278.784-2.93 7.76-4.501a49.254 49.254 0 0 0 12.957-5.253z" fill="#6747c7"/><path d="m141.404 52.971s-3.759-5.163-6.575-5.631c-2.817-.468-12.218-5.631-14.097-6.1-1.88-.467-3.285-1.876-3.285-.45 0 1.427 5.164 7.036 6.575 7.509 1.41.472 3.655 4.69 7.986 4.69 3.29 0 5.637 3.286 6.58 4.695.941 1.409 2.816-4.713 2.816-4.713zm1.812 159.489s-.803 3.601-1.168 4.15c-2.23 3.367-6.444 5.096-6.065 5.56.031.036 1.293 1.12 1.31 1.125 1.804.45 9.875-2.467 11.83-5.014.812-1.058 1.046-4.322.902-5.244-.144-.923-6.81-.577-6.81-.577z" fill="#e6aa85"/><path d="m195.43 56.725c.256-1.427 1.41-6.567 3.758-9.385s11.266-6.1 18.792-.936c7.526 5.163 8.455 14.543 5.638 19.238s2.497 14.296 6.575 16.889c5.17 3.286 13.71 6.527 15.503 9.858 3.29 6.099-1.735 18.59 1.41 20.643 12.213 7.976 10.816 11.73-2.347 21.115-5.985 4.272-34.417 4.952-44.165-3.754-14.097-12.604-17.85-32.86-15.034-44.112.829-3.313 5.638-9.381 7.048-13.608s2.497-14.138 2.821-15.948z" fill="#fcc2c2"/><path d="m222.676 262.767a10.852 10.852 0 0 0 -1.41 5.109c0 2.817 2.555 10.663 4.7 11.73 1.88.94 2.817.45 3.759 0 .941-.45.45-1.404.45-2.813 0-1.41-2.154-12.221-2.154-12.221z" fill="#6747c7"/><path d="m222.933 259.238-.257 5.82s3.29 5.163 4.7 1.409a39.431 39.431 0 0 0 1.88-6.572z" fill="#e6aa85"/><path d="m201.77 84.016s-37.914-11.892-60.389-30.829c-1.685-1.418-3.262 3.282-2.645 4.407 15.43 28.182 45.413 41.835 49.82 41.412 4.408-.423 9.248-16.313 13.214-14.99z" fill="#8166d1"/><path d="m156.438 263.658-17.382 7.504-.942-45.513 21.14-2.345z" fill="#423284" opacity=".78"/><path d="m182.968 147.872s-50.266 10.91-50.266 21.232c0 10.033-2.353 20.18 9.391 46.926 1.524 3.461 8.46.45 8.46.45s-3.056-33.553-.235-41.529 34.057 2.111 45.098 3.754c4.209.626 25.133 23.7 24.899 36.132-.126 6.567 1.879 33.31 1.879 37.536 0 4.227 2.582 6.806 6.34 5.852 3.76-.954 9.762-39.76 9.631-47.624-.234-14.314-9.198-54.015-11.266-53.493-1.01.297-24.421-1.607-43.93-9.236z" fill="#8166d1"/><path d="m204.357 82.063c-12.452.707-19.496 20.413-25.134 71.57-.17 1.522 10.929 6.847 23.489 9.853 15.462 3.71 32.898 4.227 32.65.235-2.92-49.546-14.8-78.593-14.8-78.593s-12.09-3.295-16.205-3.065z" fill="#423284"/><path d="m216.101 83.004s14.56 1.12 15.503 23.546c.942 22.425 25.133 30.158 25.133 35.807 0 3.755-4.7 9.386-15.503 15.017-16.755 8.732-20.203 5.54-23.488 6.099-3.285.558-6.345-59.728-5.859-65.894.487-6.167 4.228-14.575 4.228-14.575" fill="#6747c7"/><path d="m220.328 94.266s.938 12.198 6.575 16.42c3.547 2.656 4.232-.936 4.7-3.285.65-3.25-11.275-13.135-11.275-13.135z" fill="#423284"/><path d="m248.17 67.528-1.005-.085.221-.396s.288.166.784.481zm16.855 24.919c-1.09 7.396-30.947 14.954-35.07 14.954-3.84 0-7.279-3.286-9.014-9.831-.874-3.277-.766-5.906-.55-9.755v-.162c.045-.742.09-1.53.136-2.376 2.503.247 4.986.669 7.431 1.26 3.015.67 6.102 1.463 9.013 2.026 3.452.657 6.674.985 9.266.414l11.095.495 7.625-2.25c.21 1.734.233 3.486.068 5.225z" fill="#8166d1"/><path d="m204.357 82.063s-15.503 36.996-15.503 73.668c0 4.226-9.396-4.222-9.396-4.222s5.164-71.323 24.899-69.446" fill="#6747c7"/><path d="m201.536 52.971s-7.517 15.484-2.803 20.57c5.21 5.623 3.362 8.4.558 15.12-.676 1.621-.545 5.132 5.066 5.132 5.61 0 12.862-7.368 12.862-8.49 0-1.12-3.871-5.05-4.426-6.994-.937-3.282-.924-9.322 1.06-11.488 1.121-1.224 5.047-1.683 5.047-4.5 0-2.31-1.997-.798-2.254-2.251-.256-1.454 1.501-3.336 1.118-4.48-1.65-5.014-12.001-5.905-16.228-2.619z" fill="#e6aa85"/><path d="m139.056 225.65v45.043l93.485 10.326 12.218-67.1z" fill="#8166d1" opacity=".44"/><path d="m231.604 281.02 18.788-11.731 12.686-55.838-19.261.468z" fill="#423284" opacity=".59"/><path d="m250.392 268.348-93.954-5.163-17.382 7.977 93.485 9.857z" fill="#423284" opacity=".55"/><path d="m218.31 51.432 14.105-5.357v20.292l-14.295 3.817z" fill="#9b81eb"/><path d="m270.78 69.473-38.707-3.363v19.432l38.554 2.444z" fill="#423284"/><path d="m217.038 70.17v17.47l15.237-1.972v-19.445z" fill="#8d7add"/><path d="m247.575 67.033s-6.575-6.1-8.454-4.69c-1.88 1.409-6.58 7.04-5.17 8.444 1.411 1.405 11.506.94 12.097 0 .59-.94 1.527-3.754 1.527-3.754z" fill="#e6aa85"/><ellipse cx="147.975" cy="319.258" fill="#423284" rx="3.75" ry="5.865"/><path d="m246.43 307.253-90.672-1.35a.96.96 0 0 0 -.487.116l-11.717 6.212a1.003 1.003 0 0 0 .4 1.89l90.034 6.303c.272.018.54-.074.743-.257l12.349-11.14a1.003 1.003 0 0 0 -.65-1.774z" fill="#423284" opacity=".92"/><path d="m153.031 319.258c0-3.241-1.68-5.852-3.75-5.852l-1.739.04v.622c-1.203.977-2.028 2.94-2.028 5.203 0 2.417.937 4.501 2.253 5.402v.45h1.19a1.9 1.9 0 0 0 .28 0c.134 0 .268-.013.4-.036 1.93-.315 3.394-2.804 3.394-5.83z" fill="#423284" opacity=".55"/><path d="m69.852 316.323c-1.162-6.707-1.351-17.857 3.723-34.129 3.303-10.632 4.133-24.06 3.308-36.654-2.614-.9-4.358-2.52-4.304-4.343.045-1.58 1.433-2.944 3.529-3.75-.451-3.538-1.014-6.941-1.695-10.11-3.51-.666-6.034-2.593-5.967-4.785.045-1.616 1.501-3.007 3.682-3.799-1.658-5.023-.87-14.246-3.01-16.25-2.14-2.003-7.21 3.223-9.54 5.537-4.309 4.272-6.116 12.253-6.31 22.115 2.776.76 4.678 2.606 4.367 4.375-.266 1.481-2.014 2.471-4.263 2.606 1.253 26.959 11.595 63.329 16.48 79.187z" fill="#423284"/><path d="m93.81 314.207-50.384-.616 7.8 33.269c.393 2.637 7.9 4.74 17.126 4.74 9.464 0 17.125-2.22 17.125-4.952a1.574 1.574 0 0 0 -.059-.405z" fill="#6747c7"/><ellipse cx="68.6" cy="314.144" fill="#8166d1" rx="25.584" ry="7.405"/><path d="m87.672 317.898c0 .671-.41 1.31-1.172 1.909-2.682-2.093-9.64-3.601-17.801-3.601-8.162 0-15.12 1.49-17.801 3.6-.762-.593-1.177-1.237-1.177-1.908 0-3.038 8.495-5.491 18.978-5.491 10.482 0 18.973 2.453 18.973 5.491z" fill="#6747c7"/><path d="m68.69 312.47c-8.157 0-15.12 1.49-17.801 3.6 2.681 2.094 9.635 3.602 17.8 3.602 8.167 0 15.125-1.49 17.802-3.601-2.668-2.111-9.64-3.601-17.801-3.601z" fill="#3d2c84"/><path d="m91.935 294.51c14.57 4.708 17.873-15.687.978-14.305-9.013.738-4.286-11.618 8.044-11.28 12.33.337 20.987-17.335 5.597-15.003-12.019 1.8.6-6.1 6.116-5.33 11.906 1.657 19.072-23.321 8.657-17.667-16.873 9.16-14.322-.977-7.111-7.414 7.746-6.923 3.407-15.754-3.461-17.735 0 0-41.786 80.573-43.674 109.894-.586 9.093 27.522-4.564 29.135-9.547 2.145-6.612-8.378-1.247-14.57-4.708-4.39-2.454 3.624-9.061 10.289-6.905z" fill="url(#c)" opacity=".51"/><path d="m316.215 148.056a6.94 6.94 0 0 1 -.504.203 55.044 55.044 0 0 1 1.33 2.043c-1.78-2.354-17.815.248-19.974-1.35-.55 2.12-.478 5.1.194 7.688l.067.275c.095.328.199.652.311.967.69 1.909 1.749 3.448 3.177 4.006.766.291 1.61.304 2.384.037a.316.316 0 0 1 .1-.032 13.89 13.89 0 0 1 3.014-.576 16.067 16.067 0 0 1 4.471.301v-1.485l4.903 6.837 4.227 8.45s9.014-.343 9.87-3.755c1.406-5.63 4.01-11.789 4.227-13.607.757-6.36-12.501-12.347-17.797-10.002z" fill="#fcc2c2"/><path d="m59.744 285.507c-14.57-4.713-5.277-23.168 7.598-12.153 6.877 5.878 10.289-6.905.104-13.855s-1.532-24.613 9.567-13.716c9.564 9.39 4.304-4.65-1.83-7.9-10.617-5.626 3.534-28.357 8.654-17.667 8.296 17.303 13.52 8.021 11.437-1.418-2.217-10.141 9.117-13.882 15.86-11.483 0 0-36.347 66.984-43.67 109.89-1.537 9.003-19.622-19.806-18.026-24.788 2.145-6.613 7.521 3.893 14.57 4.712 5.006.577 2.392-9.47-4.264-11.622z" fill="url(#d)" opacity=".51"/><path d="m326.58 333.698s1.326 6.576.235 8.062c-1.09 1.485-6.31.868-7.837 1.72-1.528.85-5.214 2.727-9.6 2.25-4.384-.477-3.514-2.278-3.514-2.278s.784-2.935 7.756-4.501a49.24 49.24 0 0 0 12.96-5.253z" fill="#6747c7"/><path d="m429.264 313.892s5.665 6.694 7.485 7.364c1.821.671-2.447 10.259-2.447 10.259s-2.019-7.05-6.674-10.218c-4.655-3.17 1.636-7.405 1.636-7.405z" fill="#e6aa85"/><path d="m435.663 320.63s6.94 1.202 7.296 4.853c.356 3.65-1.762 6.752-1.901 7.787-.14 1.035-2.06 10.524-2.321 10.911-.262.387-3.439 5.042-4.2 2.823-.762-2.22 1.464-2.98.86-7.932a39.92 39.92 0 0 0 -2.46-9.376s1.82-1.616 2.726-9.065z" fill="#6747c7"/><path d="m319.857 329.768s-.802 3.601-1.167 4.15c-2.254 3.367-6.45 5.096-6.066 5.56.027.035 1.289 1.12 1.307 1.125 1.802.45 9.874-2.471 11.83-5.015.81-1.057 1.045-4.32.9-5.248-.143-.927-6.804-.572-6.804-.572z" fill="#e6aa85"/><path d="m382.873 230.34s30.537 51.143 50.735 87.743c1.222 2.214-2.163 7.404-4.227 5.631-33.349-28.62-68.117-70.85-68.586-76.972s22.078-16.403 22.078-16.403z" fill="#6747c7"/><path d="m372.08 249.578 10.793 26.247s-15.931-16.47-17.32-20.976c-1.387-4.506 6.526-5.271 6.526-5.271z" fill="#423284"/><path d="m385.69 232.23c-.451 23.46-27.248 30.5-46.978 44.563-11.942 8.52-.45 14.548-10.815 55.815-.6 2.39-9.87 0-9.87 0s-4.682-56.265-.924-64.732c3.759-8.467 27.716-31.437 30.537-32.86 2.821-1.422 38.239-12.072 38.05-2.786z" fill="#8166d1"/><path d="m304.196 152.251s-9.892 23.857 4.016 24.23c6.12.172 4.177 4.542 5.836 3.944 6.007-2.174 7.278-4.983 7.278-4.983s-5.832-8.854-1.41-10.326c1.41-.45 2.352-3.754.941-5.159-1.198-1.197-3.713 1.32-3.952.505-1.293-4.407-2.934-8.296-4.732-8.602a19.342 19.342 0 0 0 -7.977.391z" fill="#e6aa85"/><path d="m326.279 172.858s28.184-16.893 56.842 48.33c1.27 2.89 7.512 6.838 6.58 9.854-3.52 11.365-46.982 9.853-46.982 9.853s-.703-40.588-25.602-52.787z" fill="#423284"/><path d="m326.03 172.624c-14.808 4.438-25.601 23.186-55.43 28.156-2.822.45 0 4.69 0 4.69s33.822 2.818 58.252-17.362c14.133-11.694 1.875-16.893-2.821-15.484z" fill="#8166d1"/><path d="m272.474 201.716s-6.575-6.1-8.454-4.69c-1.88 1.408-6.58 7.035-5.17 8.444 1.411 1.409 11.506.94 12.097 0 .59-.94 1.527-3.754 1.527-3.754z" fill="#e6aa85"/><path d="m308.559 146.256s7.021-9.71 19.446-5.402 7.021 20.499 4.322 20.499c-2.7 0-12.966-11.861-23.768-15.097z" fill="#423284"/><path d="m317.04 150.307c-1.78-2.354-17.814.247-19.973-1.35.505-1.94 1.523-3.152 3.073-2.701 7.517 2.178 12.168 3.254 15.575 2.03.68.976 1.163 1.746 1.325 2.02z" fill="#fcc2c2"/><path d="m315.71 148.254c-3.406 1.224-8.057.149-15.574-2.03-1.55-.45-2.569.774-3.074 2.7-2.185-1.638-1.153-6.301-.157-7.282 3.285-3.286 8.454-2.814 11.744-1.41 2.06.901 5.255 5.312 7.062 8.022z" fill="#8166d1"/></g><path d="m185.15 275.672c-.78 11.041 47.964 31.554 12.862 39.832-1.244.292-2.488.36-2.488 1.35" stroke="#ccc" stroke-width="2.25"/><path d="m258.229 89.54-41.01-1.801 14.872-2.25 38.756 2.25z" fill="#6747c7" fill-rule="nonzero"/><path d="m264.867 87.433c-2.019-9.97-13.56-17.906-16.674-19.905l-1.005-.085-1.83 3.295s10.036 9.623 5.083 15.754c-.05.07-.104.135-.162.198a7.213 7.213 0 0 1 -4.02 2.25l10.618 1.5 8.08.072c-.045-.351-.018-2.737-.09-3.08z" fill="#8166d1" fill-rule="nonzero"/></g></svg>